# Blender v3.5.0 OBJ File: 'grimoir.blend'
# www.blender.org
mtllib grimoir.mtl
o Cube
v 0.970720 -1.430321 -0.189008
v 0.970720 -1.430321 0.189008
v -0.837051 -1.430321 0.189007
v -0.837051 -1.430321 -0.189008
v 0.970721 1.430321 -0.189007
v 0.970720 1.430321 0.189008
v -0.837051 1.430321 0.189007
v -0.837051 1.430321 -0.189008
v -0.824349 -1.453339 -0.185921
v -0.917006 1.453418 -0.185921
v -0.824349 1.453418 -0.185921
v -0.824349 -1.453339 0.185409
v -0.908810 -1.453339 0.185409
v -0.824349 1.453418 0.185409
v -0.908810 1.453418 0.185409
v -0.824349 1.453418 0.222325
v -0.888758 1.453418 0.222325
v -0.824349 1.453418 -0.236525
v -0.888758 1.453418 -0.236525
v -0.973358 1.453418 -0.084972
v -0.973358 1.453418 0.066581
v -0.824349 1.453418 0.066581
v -0.824349 1.453418 -0.084972
v -0.824349 -1.453339 0.222325
v -0.888758 -1.453339 0.222325
v -0.824349 -1.453339 -0.236525
v -0.888758 -1.453339 -0.236525
v -0.973358 -1.453339 -0.084972
v -0.973358 -1.453339 0.066581
v -0.824349 -1.453339 0.066581
v -0.824349 -1.453339 -0.084972
v -0.917006 -1.453339 -0.185921
v 1.012746 -1.453339 -0.185921
v 1.012746 1.453418 -0.185921
v 1.012746 -1.453339 0.185409
v 1.012746 1.453418 0.185409
v 1.012746 1.453418 0.222325
v 1.012746 1.453418 -0.236525
v 1.012746 -1.453339 0.222325
v 1.012746 -1.453339 -0.236525
vt 0.828919 0.175651
vt 0.898345 0.175651
vt 0.898345 0.499066
vt 0.828919 0.499066
vt 0.968367 0.175651
vt 0.968367 0.499066
vt 0.898941 0.499066
vt 0.898941 0.175651
vt 0.000298 0.766725
vt 0.491154 0.766725
vt 0.491154 0.836151
vt 0.000298 0.836151
vt 0.000298 0.328959
vt 0.000298 0.000298
vt 0.499066 0.000298
vt 0.499066 0.328959
vt 0.340482 0.905540
vt 0.344069 0.912320
vt 0.328959 0.912320
vt 0.328959 0.905540
vt 0.913191 0.514798
vt 0.913191 0.526320
vt 0.906411 0.526320
vt 0.906411 0.511210
vt 0.838214 0.509744
vt 0.838214 0.526320
vt 0.828919 0.526320
vt 0.828919 0.514798
vt 0.884588 0.526320
vt 0.884588 0.499662
vt 0.856754 0.526320
vt 0.856754 0.499662
vt 0.345536 0.980518
vt 0.340482 0.989812
vt 0.328959 0.989812
vt 0.328959 0.980518
vt 0.355617 0.934144
vt 0.328959 0.934144
vt 0.355617 0.961978
vt 0.328959 0.961978
vt 0.000298 0.858570
vt 0.499066 0.858570
vt 0.499066 0.886404
vt 0.000298 0.886404
vt 0.000298 0.836746
vt 0.499066 0.836746
vt 0.499066 0.738228
vt 0.000298 0.738228
vt 0.000298 0.710394
vt 0.499066 0.710394
vt 0.499066 0.756813
vt 0.000298 0.756813
vt 0.828324 0.998431
vt 0.499662 0.998431
vt 0.499662 0.499662
vt 0.828324 0.499662
vt 0.499066 0.688622
vt 0.000298 0.688622
vt 0.000298 0.681858
vt 0.499066 0.681858
vt 0.499066 0.340482
vt 0.000298 0.340482
vt 0.499066 0.681262
vt 0.000298 0.681262
vt 0.000298 0.669739
vt 0.499066 0.669739
vt 0.499066 0.766129
vt 0.000298 0.766129
vt 0.499066 0.904944
vt 0.000298 0.904944
vt 0.968963 0.674420
vt 0.968963 0.175651
vt 0.975743 0.175651
vt 0.975743 0.674420
vt 0.000298 0.990408
vt 0.499066 0.990408
vt 0.499066 0.999702
vt 0.000298 0.999702
vt 0.000298 0.341078
vt 0.499066 0.341078
vt 0.000298 0.912320
vt 0.000298 0.905540
vt 0.000298 0.989812
vt 0.000298 0.980518
vt 0.913191 0.854981
vt 0.906411 0.854981
vt 0.838214 0.854981
vt 0.828920 0.854981
vt 0.499662 0.000298
vt 0.828324 0.000298
vt 0.828324 0.499066
vt 0.499662 0.499066
vn 0.7071 -0.7071 0.0000
vn 0.0000 -1.0000 -0.0000
vn 0.7071 0.7071 0.0000
vn 0.0000 1.0000 0.0000
vn 0.0000 0.7071 -0.7071
vn 0.5774 0.5774 -0.5774
vn 0.5774 -0.5774 -0.5774
vn 0.0000 -0.7071 -0.7071
vn -0.4058 -0.6081 0.6823
vn -0.6214 -0.7071 0.3375
vn 0.3015 -0.9045 -0.3015
vn 0.0000 -0.7071 0.7071
vn -0.4058 0.6081 0.6823
vn 0.0000 0.7071 0.7071
vn 0.3015 0.9045 -0.3015
vn -0.6214 0.7071 0.3375
vn -0.6174 0.7071 -0.3447
vn 0.3015 0.9045 0.3015
vn -0.4016 0.6090 -0.6841
vn -0.7318 0.6557 0.1859
vn -0.7316 0.6546 -0.1904
vn -0.6174 -0.7071 -0.3447
vn -0.4016 -0.6090 -0.6841
vn 0.3015 -0.9045 0.3015
vn -0.7318 -0.6557 0.1859
vn -0.7316 -0.6546 -0.1904
vn 0.5774 -0.5774 0.5774
vn 0.5774 0.5774 0.5774
usemtl closed_book
s 1
f 1/1/1 2/2/1 3/3/2 4/4/2
f 5/5/3 8/6/4 7/7/4 6/8/3
f 1/9/1 5/10/3 6/11/3 2/12/1
f 18/13/5 38/14/6 40/15/7 26/16/8
f 25/17/9 13/18/10 12/19/11 24/20/12
f 17/21/13 16/22/14 14/23/15 15/24/16
f 10/25/17 11/26/18 18/27/5 19/28/19
f 15/24/16 14/23/15 22/29/3 21/30/20
f 21/30/20 22/29/3 23/31/3 20/32/21
f 32/33/22 27/34/23 26/35/8 9/36/24
f 13/18/10 29/37/25 30/38/1 12/19/11
f 29/37/25 28/39/26 31/40/1 30/38/1
f 22/41/3 30/42/1 31/43/1 23/44/3
f 14/45/15 12/46/11 30/42/1 22/41/3
f 20/47/21 28/48/26 29/49/25 21/50/20
f 10/51/17 32/52/22 28/48/26 20/47/21
f 9/53/24 33/54/27 34/55/28 11/56/18
f 15/57/16 13/58/10 25/59/9 17/60/13
f 18/13/5 26/16/8 27/61/23 19/62/19
f 17/63/13 25/64/9 24/65/12 16/66/14
f 21/50/20 29/49/25 13/58/10 15/57/16
f 20/32/21 23/31/3 11/26/18 10/25/17
f 28/39/26 32/33/22 9/36/24 31/40/1
f 19/67/19 27/68/23 32/52/22 10/51/17
f 23/44/3 31/43/1 9/69/24 11/70/18
f 37/71/28 39/72/27 35/73/7 36/74/6
f 34/75/28 33/76/27 40/77/7 38/78/6
f 24/65/12 39/79/27 37/80/28 16/66/14
f 12/19/11 35/81/7 39/82/27 24/20/12
f 26/35/8 40/83/7 33/84/27 9/36/24
f 16/22/14 37/85/28 36/86/6 14/23/15
f 11/26/18 34/87/28 38/88/6 18/27/5
f 14/89/15 36/90/6 35/91/7 12/92/11
o Cube.001
v -0.303121 -1.430321 -1.727625
v -0.271365 -1.430321 1.722980
v -0.837051 -1.430321 0.189007
v -0.837051 -1.430321 -0.189008
v -0.303118 1.430321 -1.727625
v -0.271365 1.430321 1.722980
v -0.837051 1.430321 0.189007
v -0.837051 1.430321 -0.189008
v -0.805313 -1.453339 -0.187041
v -0.917006 1.453418 -0.185921
v -0.805313 1.453418 -0.187041
v -0.800834 -1.453339 0.185409
v -0.908810 -1.453339 0.185409
v -0.800834 1.453418 0.185409
v -0.908810 1.453418 0.185409
v -0.824349 1.453418 0.222325
v -0.888758 1.453418 0.222325
v -0.824349 1.453418 -0.236525
v -0.888758 1.453418 -0.236525
v -0.973358 1.453418 -0.084972
v -0.973358 1.453418 0.066581
v -0.824349 1.453418 0.066581
v -0.824349 1.453418 -0.084972
v -0.824349 -1.453339 0.222325
v -0.888758 -1.453339 0.222325
v -0.824349 -1.453339 -0.236525
v -0.888758 -1.453339 -0.236525
v -0.973358 -1.453339 -0.084972
v -0.973358 -1.453339 0.066581
v -0.824349 -1.453339 0.066581
v -0.824349 -1.453339 -0.084972
v -0.917006 -1.453339 -0.185921
v -0.283894 -1.453339 -1.765121
v -0.283892 1.453418 -1.765122
v -0.251106 -1.453339 1.759975
v -0.251106 1.453418 1.759975
v -0.284879 1.453418 1.774879
v -0.330492 1.453418 -1.784850
v -0.284879 -1.453339 1.774879
v -0.330495 -1.453339 -1.784850
v -0.098447 -1.430321 1.646671
v -0.683127 -1.430321 -0.000000
v -0.098447 1.430321 1.646671
v -0.683127 1.430321 -0.000000
v -0.128898 -1.430321 -1.653866
v -0.128896 1.430321 -1.653866
v -0.098447 -1.430321 1.646671
v -0.098447 -1.430321 1.646671
v -0.271365 -1.430321 1.722980
v -0.098447 1.430321 1.646671
v -0.098447 1.430321 1.646671
v -0.271365 1.430321 1.722980
v -0.805313 1.453418 -0.187041
v -0.824349 1.453418 -0.084972
v -0.800834 -1.453339 0.185409
v -0.824349 -1.453339 0.066581
v -0.908810 -1.453339 0.185409
v -0.973358 -1.453339 0.066581
v -0.800834 1.453418 0.185409
v -0.824349 1.453418 0.066581
v -0.908810 1.453418 0.185409
v -0.973358 1.453418 0.066581
v -0.824349 1.453418 0.222325
v -0.824349 1.453418 0.222325
v -0.888758 1.453418 0.222325
v -0.888758 1.453418 0.222325
v -0.824349 1.453418 -0.236525
v -0.824349 1.453418 -0.236525
v -0.888758 1.453418 -0.236525
v -0.888758 1.453418 -0.236525
v -0.917006 1.453418 -0.185921
v -0.973358 1.453418 -0.084972
v -0.824349 -1.453339 0.222325
v -0.824349 -1.453339 0.222325
v -0.888758 -1.453339 0.222325
v -0.888758 -1.453339 0.222325
v -0.824349 -1.453339 -0.236525
v -0.824349 -1.453339 -0.236525
v -0.888758 -1.453339 -0.236525
v -0.888758 -1.453339 -0.236525
v -0.917006 -1.453339 -0.185921
v -0.973358 -1.453339 -0.084972
v -0.824349 -1.453339 -0.084972
v -0.805313 -1.453339 -0.187041
v -0.251106 1.453418 1.759975
v -0.251106 1.453418 1.759975
v -0.251106 -1.453339 1.759975
v -0.251106 -1.453339 1.759975
v -0.283892 1.453418 -1.765122
v -0.283892 1.453418 -1.765122
v -0.330492 1.453418 -1.784850
v -0.330492 1.453418 -1.784850
v -0.284879 1.453418 1.774879
v -0.284879 1.453418 1.774879
v -0.283894 -1.453339 -1.765121
v -0.283894 -1.453339 -1.765121
v -0.330495 -1.453339 -1.784850
v -0.330495 -1.453339 -1.784850
v -0.284879 -1.453339 1.774879
v -0.284879 -1.453339 1.774879
v -0.128898 -1.430321 -1.653866
v -0.128898 -1.430321 -1.653866
v -0.303121 -1.430321 -1.727625
v -0.128896 1.430321 -1.653866
v -0.128896 1.430321 -1.653866
v -0.303118 1.430321 -1.727625
v -0.683127 -1.430321 -0.000000
v -0.683127 -1.430321 -0.000000
v -0.683127 1.430321 -0.000000
v -0.683127 1.430321 -0.000000
vt 0.372074 0.378625
vt 0.372074 0.613255
vt 0.000279 0.613255
vt 0.000279 0.378625
vt 0.000279 0.848664
vt 0.000279 0.613255
vt 0.372074 0.613255
vt 0.372074 0.848664
vt 0.835694 0.857702
vt 0.811613 0.866659
vt 0.750978 0.648577
vt 0.771876 0.622315
vt 0.526581 0.002622
vt 0.526581 0.246506
vt 0.499539 0.226629
vt 0.500995 0.000279
vt 0.744427 0.844283
vt 0.372632 0.844283
vt 0.372632 0.818771
vt 0.744427 0.818771
vt 0.372632 0.818213
vt 0.372632 0.599516
vt 0.750420 0.599516
vt 0.750420 0.818213
vt 0.847681 0.660956
vt 0.844972 0.655816
vt 0.859604 0.655839
vt 0.856409 0.660970
vt 0.929694 0.599164
vt 0.938422 0.599150
vt 0.941617 0.604280
vt 0.926985 0.604304
vt 0.925958 0.655962
vt 0.941094 0.656093
vt 0.938525 0.662981
vt 0.929797 0.662995
vt 0.938457 0.620816
vt 0.918265 0.620848
vt 0.938491 0.641899
vt 0.918299 0.641931
vt 0.843945 0.604158
vt 0.847784 0.597125
vt 0.856512 0.597139
vt 0.859080 0.604027
vt 0.836252 0.639272
vt 0.856444 0.639304
vt 0.836286 0.618189
vt 0.856478 0.618221
vt 0.240736 0.378067
vt 0.240736 0.000279
vt 0.261819 0.000279
vt 0.261819 0.378067
vt 0.224200 0.378067
vt 0.224200 0.000279
vt 0.499539 0.335339
vt 0.877328 0.335339
vt 0.877328 0.356422
vt 0.499539 0.356422
vt 0.499539 0.321283
vt 0.877328 0.321283
vt 0.276013 0.000279
vt 0.498981 0.000279
vt 0.498981 0.378067
vt 0.276013 0.378067
vt 0.499539 0.372937
vt 0.877328 0.372937
vt 0.877328 0.378067
vt 0.499539 0.378067
vt 0.903981 0.378067
vt 0.903981 0.000279
vt 0.912461 0.000279
vt 0.912461 0.378067
vt 0.913019 0.378067
vt 0.913019 0.000279
vt 0.921499 0.000279
vt 0.921499 0.378067
vt 0.499539 0.314236
vt 0.877328 0.314236
vt 0.929445 0.378067
vt 0.929445 0.000279
vt 0.934428 0.000279
vt 0.934428 0.378067
vt 0.922057 0.378067
vt 0.922057 0.000279
vt 0.928887 0.000279
vt 0.928887 0.378067
vt 0.750420 0.378625
vt 0.750420 0.598958
vt 0.372632 0.598958
vt 0.372632 0.378625
vt 0.917708 0.879746
vt 0.913004 0.881495
vt 0.911268 0.378625
vt 0.917708 0.381043
vt 0.995018 0.378625
vt 0.999721 0.380374
vt 0.999721 0.879077
vt 0.993281 0.881495
vt 0.000279 0.378067
vt 0.000279 0.000279
vt 0.811617 0.378625
vt 0.835694 0.387663
vt 0.751058 0.595991
vt 0.528530 0.246506
vt 0.527139 0.020867
vt 0.554136 0.000928
vt 0.554136 0.244104
vt 0.903423 0.006272
vt 0.903423 0.378067
vt 0.877886 0.378067
vt 0.877886 0.006273
vt 0.520397 0.313678
vt 0.520397 0.261092
vt 0.499539 0.287385
vn 0.9482 -0.0000 0.3177
vn 0.9424 -0.0000 -0.3346
vn 0.0000 -1.0000 -0.0000
vn -0.0000 1.0000 -0.0000
vn 0.4037 0.0000 0.9149
vn -0.9527 0.0000 -0.3039
vn 0.9952 -0.0000 -0.0975
vn 0.9958 -0.0000 0.0921
vn 0.9649 -0.0000 -0.2625
vn -0.9678 0.0000 -0.2518
vn -0.9692 0.0000 0.2462
vn -0.8732 0.0000 -0.4874
vn 0.9685 -0.0000 0.2491
vn 0.9495 -0.0000 0.3137
vn -0.8787 0.0000 0.4773
vn 0.0000 -0.0000 -1.0000
vn 0.0000 0.0000 1.0000
vn 0.3899 -0.0000 -0.9209
vn -0.9446 0.0000 0.3282
vn 0.9441 -0.0000 -0.3296
usemtl open_book
s off
f 86/93/29 150/94/29 148/95/29 85/96/29
f 81/97/30 82/98/30 84/99/30 83/100/30
s 1
f 87/101/31 89/102/31 43/103/31 147/104/31
f 90/105/32 149/106/32 47/107/32 46/108/32
f 88/109/33 91/110/33 92/111/33 42/112/33
f 108/113/34 132/114/34 138/115/34 118/116/34
f 115/117/31 53/118/31 52/119/31 113/120/31
f 105/121/32 103/122/32 54/123/32 55/124/32
f 111/125/32 93/126/32 107/127/32 109/128/32
f 55/124/32 54/123/32 100/129/32 102/130/32
f 102/130/32 100/129/32 94/131/32 112/132/32
f 121/133/31 119/134/31 117/135/31 124/136/31
f 53/118/31 98/137/31 96/138/31 52/119/31
f 98/137/31 122/139/31 123/140/31 96/138/31
f 62/141/35 70/142/35 71/143/36 63/144/36
f 99/145/37 95/146/37 70/142/35 62/141/35
f 60/147/38 68/148/38 69/149/39 61/150/39
f 50/151/40 72/152/40 68/148/38 60/147/38
f 49/153/41 136/154/42 130/155/42 51/156/41
f 101/157/43 97/158/43 116/159/43 106/160/43
f 58/161/44 66/162/44 120/163/44 110/164/44
f 57/165/45 65/166/45 114/167/45 104/168/45
f 61/150/39 69/149/39 97/158/43 101/157/43
f 112/132/32 94/131/32 93/126/32 111/125/32
f 122/139/31 121/133/31 124/136/31 123/140/31
f 59/169/40 67/170/40 72/152/40 50/151/40
f 63/144/36 71/143/36 49/153/41 51/156/41
f 133/171/33 139/172/33 127/173/33 125/174/33
f 129/175/46 135/176/46 137/177/46 131/178/46
f 64/179/47 140/180/47 134/181/47 56/182/47
f 52/119/31 128/183/31 79/184/31 113/120/31
f 117/135/31 80/185/31 73/186/31 124/136/31
f 103/122/32 77/187/32 126/188/32 54/123/32
f 93/126/32 74/189/32 78/190/32 107/127/32
f 99/145/37 76/191/48 75/192/48 95/146/37
f 143/193/31 141/194/31 147/104/31 44/195/31
f 45/196/32 48/197/32 149/198/32 144/199/32
f 41/200/46 146/201/46 145/202/46 142/203/46
f 48/204/32 47/205/32 149/206/32
f 44/195/31 147/104/31 43/103/31
